<svg width="24" height="25" viewBox="0 0 24 25" fill="none" xmlns="http://www.w3.org/2000/svg">
<mask id="mask0_467_58038" style="mask-type:alpha" maskUnits="userSpaceOnUse" x="4" y="4" width="16" height="17">
<path d="M18.791 13.5002H7.62102L12.501 18.3802C12.891 18.7702 12.891 19.4102 12.501 19.8002C12.111 20.1902 11.481 20.1902 11.091 19.8002L4.50102 13.2102C4.11102 12.8202 4.11102 12.1902 4.50102 11.8002L11.081 5.2002C11.2678 5.01295 11.5215 4.90771 11.786 4.90771C12.0505 4.90771 12.3042 5.01295 12.491 5.2002C12.881 5.5902 12.881 6.2202 12.491 6.6102L7.62102 11.5002H18.791C19.341 11.5002 19.791 11.9502 19.791 12.5002C19.791 13.0502 19.341 13.5002 18.791 13.5002Z" fill="black"/>
</mask>
<g mask="url(#mask0_467_58038)">
<rect width="24" height="24" transform="matrix(-1 0 0 1 24 0.5)" fill="#252525"/>
</g>
</svg>
