<svg width="30" height="23" viewBox="0 0 30 23" fill="none" xmlns="http://www.w3.org/2000/svg">
<g id="Group 6">
<path id="Vector" d="M25.2598 5.12741C24.3778 4.79767 23.4201 4.72583 22.4988 4.92028C21.5775 5.11474 20.7306 5.56745 20.0571 6.2255C19.971 5.09289 19.4987 4.02418 18.7192 3.19801C17.9396 2.37184 16.9001 1.83828 15.7745 1.68654C14.6488 1.5348 13.5051 1.77406 12.5346 2.36434C11.5642 2.95461 10.8258 3.86012 10.4428 4.92949C8.63191 9.80991 15.1183 19.5357 15.1183 19.5357C15.1183 19.5357 26.3789 16.395 28.1898 11.5146C28.6482 10.279 28.5971 8.91199 28.0476 7.71416C27.4981 6.51634 26.4953 5.58586 25.2598 5.12741Z" fill="url(#paint0_linear_427_1703)"/>
<line id="Line 6" x1="6.11073" y1="16.1432" x2="14.7934" y2="16.1432" stroke="url(#paint1_linear_427_1703)" stroke-width="2.76052" stroke-linecap="round"/>
<line id="Line 5" x1="1.38026" y1="7.4674" x2="10.063" y2="7.4674" stroke="url(#paint2_linear_427_1703)" stroke-width="2.76052" stroke-linecap="round"/>
<line id="Line 6_2" x1="3.74745" y1="11.8033" x2="12.4302" y2="11.8033" stroke="url(#paint3_linear_427_1703)" stroke-width="2.76052" stroke-linecap="round"/>
<path id="Vector_2" d="M15.1808 19.481C15.2868 19.8609 15.2869 19.8609 15.287 19.8608L15.2875 19.8607L15.2893 19.8602L15.296 19.8583L15.3213 19.8511C15.3434 19.8448 15.3759 19.8355 15.4182 19.8231C15.5027 19.7985 15.6262 19.7619 15.7837 19.7136C16.0987 19.6171 16.5497 19.4741 17.0962 19.2872C18.1884 18.9136 19.6656 18.3638 21.2019 17.6591C22.7361 16.9552 24.341 16.0917 25.6822 15.0878C27.0165 14.0891 28.1305 12.9216 28.622 11.5971C29.1168 10.2635 29.0616 8.78794 28.4685 7.49505C27.8755 6.2023 26.7933 5.19805 25.4599 4.70316M15.1808 19.481C14.8527 19.6998 14.8527 19.6997 14.8526 19.6996L14.8523 19.6992L14.8512 19.6976L14.8474 19.6918L14.8329 19.6699C14.8203 19.6507 14.8017 19.6224 14.7777 19.5855C14.7298 19.5117 14.66 19.4033 14.5721 19.264C14.3963 18.9855 14.1478 18.5828 13.8555 18.0847C13.2712 17.0891 12.5102 15.7087 11.8055 14.1725C11.1017 12.6383 10.4486 10.9369 10.0868 9.30111C9.7271 7.67461 9.64418 6.06389 10.1348 4.73973C10.5484 3.58625 11.3452 2.60954 12.3922 1.97272C13.4398 1.33551 14.6744 1.07722 15.8896 1.24103C17.1048 1.40484 18.227 1.98082 19.0685 2.87268C19.7401 3.58452 20.2005 4.46315 20.4063 5.41052C21.0206 4.95711 21.7273 4.63859 22.4799 4.47974C23.4743 4.26985 24.5079 4.34735 25.4599 4.70316M15.1808 19.481L14.8527 19.6998L15.0114 19.9377L15.2868 19.8609L15.1808 19.481ZM25.4599 4.70316C25.4601 4.70322 25.4602 4.70327 25.4604 4.70333L25.3223 5.07272L25.4595 4.70299C25.4596 4.70305 25.4598 4.7031 25.4599 4.70316Z" stroke="#FDFDFD" stroke-width="0.78872"/>
</g>
<defs>
<linearGradient id="paint0_linear_427_1703" x1="21.8872" y1="9.6369" x2="26.4223" y2="13.9749" gradientUnits="userSpaceOnUse">
<stop stop-color="#FFBE00"/>
<stop offset="1" stop-color="#FFEAAD"/>
</linearGradient>
<linearGradient id="paint1_linear_427_1703" x1="10.4521" y1="17.5234" x2="10.4521" y2="18.5234" gradientUnits="userSpaceOnUse">
<stop stop-color="#FFBE00"/>
<stop offset="1" stop-color="#FFBE00"/>
</linearGradient>
<linearGradient id="paint2_linear_427_1703" x1="5.72162" y1="8.84766" x2="5.72162" y2="9.84766" gradientUnits="userSpaceOnUse">
<stop stop-color="#FFBE00"/>
<stop offset="1" stop-color="#FFBE00"/>
</linearGradient>
<linearGradient id="paint3_linear_427_1703" x1="8.08881" y1="13.1836" x2="8.08881" y2="14.1836" gradientUnits="userSpaceOnUse">
<stop stop-color="#FFBE00"/>
<stop offset="1" stop-color="#FFBE00"/>
</linearGradient>
</defs>
</svg>
