<svg id="圖層_1" data-name="圖層 1" xmlns="http://www.w3.org/2000/svg" viewBox="0 0 1080 1080"><defs><style>.cls-1{fill:#919fad;}.cls-2{fill:#152d3d;}.cls-3{fill:#cd9349;}.cls-4{fill:#4d5a68;}.cls-5{fill:#805c3e;}.cls-6{fill:#fff;}.cls-7{fill:#5c6a78;}.cls-8{fill:#92989c;}.cls-9{fill:gray;}.cls-10{fill:#3c4a58;}</style></defs><path class="cls-1" d="M701.7,427.83a3.42,3.42,0,0,1-1.26-.19c-.7-.24-17.25-6-18-27-.21-5.67,2.37-12.84,5.11-20.43,3.25-9,6.89-19.2,5.57-26.48-1.94-10.81-9.26-11.31-10.07-11.35a4,4,0,0,1-3.89-4,3.93,3.93,0,0,1,4-3.93c5,0,15.31,3.75,17.86,17.9,1.71,9.36-2.34,20.65-5.93,30.58-2.44,6.86-4.79,13.34-4.65,17.47.58,15.53,12.46,19.67,12.57,19.71a4,4,0,0,1-1.25,7.74Z"/><path class="cls-1" d="M677.77,339a7,7,0,0,1-7,7h0a7,7,0,0,1-7-7v-11.1a7,7,0,0,1,7-7h0a6.94,6.94,0,0,1,7,7Z"/><path class="cls-2" d="M674.12,615.46a3,3,0,0,1-3,3h0a3,3,0,0,1-3-3v-20a3,3,0,0,1,3-3h0a3,3,0,0,1,3,3Z"/><path class="cls-3" d="M683.1,585.51c0,4.4-3.57,19.93-8,19.93h-8c-4.41,0-8-15.53-8-19.93V434.68a8,8,0,0,1,8-8h8a8,8,0,0,1,8,8Z"/><path class="cls-3" d="M683.09,491.24a7.94,7.94,0,0,1-8,7.95h-8a8,8,0,0,1-8-8V340.39a8,8,0,0,1,8-8h8a8,8,0,0,1,8,8Z"/><polygon class="cls-1" points="683.09 501.09 659.18 501.09 659.18 491.23 683.09 491.24 683.09 501.09"/><path class="cls-4" d="M528.74,324.17a13.63,13.63,0,0,1-13.62,13.61h-6.81a13.62,13.62,0,0,1-13.63-13.61L487.89,299a13.6,13.6,0,0,1,13.6-13.61h20.42A13.62,13.62,0,0,1,535.53,299Z"/><path class="cls-5" d="M644.63,663.72a10.78,10.78,0,0,1-10.77,10.79H389.58a10.79,10.79,0,0,1-10.79-10.79V332a10.8,10.8,0,0,1,10.79-10.8H633.86A10.79,10.79,0,0,1,644.63,332Z"/><path class="cls-6" d="M622.12,647.32a11.48,11.48,0,0,1-11.48,11.47H412.78a11.47,11.47,0,0,1-11.48-11.47V348.39a11.46,11.46,0,0,1,11.48-11.47H610.64a11.47,11.47,0,0,1,11.48,11.47Z"/><path class="cls-7" d="M561,343.5a9.51,9.51,0,0,1-9.5,9.51H471.91a9.5,9.5,0,0,1-9.5-9.51V322.23a9.5,9.5,0,0,1,9.5-9.51h79.61a9.51,9.51,0,0,1,9.5,9.51Z"/><rect class="cls-8" x="508.7" y="374.87" width="89" height="5.24"/><rect class="cls-8" x="508.7" y="388.07" width="89" height="5.24"/><rect class="cls-8" x="417.78" y="431.21" width="145.8" height="5.25"/><rect class="cls-8" x="417.78" y="444.42" width="145.8" height="5.24"/><rect class="cls-8" x="417.78" y="483.98" width="145.8" height="5.24"/><rect class="cls-8" x="417.78" y="497.19" width="145.8" height="5.23"/><rect class="cls-8" x="417.78" y="535.03" width="145.8" height="5.26"/><rect class="cls-8" x="417.78" y="548.23" width="145.8" height="5.24"/><path class="cls-9" d="M599.46,445.16a1.23,1.23,0,0,1-1.23,1.24h-22a1.24,1.24,0,0,1-1.24-1.24v-21.4a1.25,1.25,0,0,1,1.24-1.25h22a1.24,1.24,0,0,1,1.23,1.25Z"/><path class="cls-9" d="M599.46,480.36a1.24,1.24,0,0,1-1.23,1.25h-22a1.25,1.25,0,0,1-1.24-1.25V459a1.25,1.25,0,0,1,1.24-1.24h22a1.24,1.24,0,0,1,1.23,1.24Z"/><path class="cls-9" d="M599.46,515.57a1.23,1.23,0,0,1-1.23,1.24h-22a1.24,1.24,0,0,1-1.24-1.24V494.18a1.25,1.25,0,0,1,1.24-1.25h22a1.24,1.24,0,0,1,1.23,1.25Z"/><path class="cls-9" d="M599.46,550.78a1.25,1.25,0,0,1-1.23,1.25h-22a1.26,1.26,0,0,1-1.24-1.25V529.37a1.24,1.24,0,0,1,1.24-1.23h22a1.24,1.24,0,0,1,1.23,1.23Z"/><path class="cls-10" d="M600.67,600.13a28.22,28.22,0,1,1-28.22-28.22A28.19,28.19,0,0,1,600.67,600.13Z"/><path class="cls-4" d="M593.82,599.48a21.36,21.36,0,1,1-21.37-21.36A21.37,21.37,0,0,1,593.82,599.48Z"/><path class="cls-7" d="M454.1,624.47c-.21,0-.43,0-.65,0a5.46,5.46,0,0,1-4.73-4.53l-4.13-25.22-18.87,14.18a5.44,5.44,0,0,1-6.53-8.71l26.05-19.57a5.46,5.46,0,0,1,8.65,3.49l2.55,15.59,8.76-20.57a5.45,5.45,0,0,1,4.89-3.3h.12a5.43,5.43,0,0,1,4.91,3.08l10.69,22.27,7.67-18.31a5.44,5.44,0,0,1,10,4.21l-12.36,29.47a5.43,5.43,0,0,1-4.88,3.34,5,5,0,0,1-5-3.07l-10.74-22.36-11.38,26.74A5.44,5.44,0,0,1,454.1,624.47Z"/><path class="cls-3" d="M488.88,389.46a5.4,5.4,0,0,1-5.11,3.68h-5.25v22.69a5.44,5.44,0,0,1-5.42,5.42H460.56V400.36a1.12,1.12,0,0,0-1.12-1.12h-9.66a1.12,1.12,0,0,0-1.12,1.12v20.89h-13a5.46,5.46,0,0,1-5.46-5.42V393.14H425a5.43,5.43,0,0,1-3.27-9.75l29.36-22.34a5.59,5.59,0,0,1,3.31-1.12,5.38,5.38,0,0,1,3.26,1.12L487,383.39A5.43,5.43,0,0,1,488.88,389.46Z"/></svg>