<svg id="圖層_1" data-name="圖層 1" xmlns="http://www.w3.org/2000/svg" viewBox="0 0 1080 1080"><defs><style>.cls-1{fill:#fff;}.cls-2{fill:#805c3e;}.cls-3{fill:#cd9349;}.cls-4{fill:#827c5e;}.cls-5{fill:#919fad;}.cls-6{fill:#7d4c2e;}.cls-7{fill:#a8b7b8;}.cls-8{fill:#bbc6c7;}</style></defs><path class="cls-1" d="M676.17,431.46,543.57,323.69a5.68,5.68,0,0,0-7.15,0L403.83,431.46a5.65,5.65,0,0,0-2.09,4.4V650a5.67,5.67,0,0,0,5.67,5.67H672.59a5.66,5.66,0,0,0,5.67-5.67V435.86A5.68,5.68,0,0,0,676.17,431.46Z"/><path class="cls-2" d="M717.22,469.08a19.57,19.57,0,0,1-12.37-4.39L540,330.69l-164.85,134a19.62,19.62,0,0,1-24.76-30.45L527.62,290.18a19.63,19.63,0,0,1,24.76,0L729.61,434.24a19.62,19.62,0,0,1-12.39,34.84Z"/><path class="cls-3" d="M504.24,520.09A12.25,12.25,0,0,0,492,507.84H459.31a12.26,12.26,0,0,0-12.26,12.25V661.35h57.19Z"/><path class="cls-3" d="M507.51,664.61H443.79V520.09a15.54,15.54,0,0,1,15.52-15.52H492a15.55,15.55,0,0,1,15.53,15.52Zm-57.19-6.54H501v-138a9,9,0,0,0-9-9H459.31a9,9,0,0,0-9,9Z"/><path class="cls-4" d="M706.78,661.35a10.36,10.36,0,0,1-10.37,10.36H383.59a10.36,10.36,0,0,1-10.37-10.36h0A10.37,10.37,0,0,1,383.59,651H696.41a10.37,10.37,0,0,1,10.37,10.38Z"/><rect class="cls-5" x="535.6" y="515.83" width="112.28" height="80.66"/><path class="cls-6" d="M647.88,599.77H535.6a3.27,3.27,0,0,1-3.27-3.28V515.83a3.26,3.26,0,0,1,3.27-3.26H647.88a3.26,3.26,0,0,1,3.27,3.26v80.66A3.27,3.27,0,0,1,647.88,599.77Zm-109-6.54H644.61V519.11H538.86Z"/><path class="cls-7" d="M514.41,458.08a3.27,3.27,0,0,1-3.27-3.26v-77.4a3.27,3.27,0,0,1,3.27-3.26H570a3.27,3.27,0,0,1,3.27,3.26v77.4a3.27,3.27,0,0,1-3.27,3.26Z"/><path class="cls-3" d="M570,377.42v77.4H514.41v-77.4Zm0-6.54H514.41a6.56,6.56,0,0,0-6.54,6.54v77.4a6.54,6.54,0,0,0,6.54,6.54H570a6.54,6.54,0,0,0,6.54-6.54v-77.4a6.56,6.56,0,0,0-6.54-6.54Z"/><polygon class="cls-8" points="538.86 593.21 538.86 518.57 589.15 518.57 538.86 593.21"/><polygon class="cls-8" points="594.46 593.21 594.46 518.57 644.74 518.57 594.46 593.21"/><path class="cls-6" d="M591.74,599.77a3.27,3.27,0,0,1-3.27-3.28V515.83a3.27,3.27,0,0,1,6.54,0v80.66A3.27,3.27,0,0,1,591.74,599.77Z"/></svg>