<svg id="圖層_1" data-name="圖層 1" xmlns="http://www.w3.org/2000/svg" viewBox="0 0 1080 1080"><defs><style>.cls-1{fill:#fff;}.cls-2{fill:#198d71;}.cls-3{fill:#919fad;}.cls-4{fill:#cd9349;}</style></defs><path class="cls-1" d="M732.63,672.57a10.05,10.05,0,0,1-10,10H357.41a10,10,0,0,1-10-10V307.4a10,10,0,0,1,10-10H722.59a10,10,0,0,1,10,10Z"/><rect class="cls-2" x="413.08" y="297.36" width="31.37" height="385.25"/><rect class="cls-2" x="643.4" y="370.96" width="31.36" height="311.65"/><rect class="cls-2" x="347.37" y="550.41" width="385.25" height="28.86"/><rect class="cls-2" x="347.37" y="362.41" width="385.25" height="28.87"/><rect class="cls-2" x="428.77" y="432.44" width="117.1" height="15.07"/><rect class="cls-2" x="585.39" y="566.07" width="15.07" height="117.08"/><path class="cls-3" d="M505,536.31a1.07,1.07,0,0,1-1.06-1.07v-48.9a1.05,1.05,0,0,1,1.06-1h27.6a1,1,0,0,1,1.06,1v48.9a1.06,1.06,0,0,1-1.06,1.07Z"/><path class="cls-3" d="M516.09,320.48a.7.7,0,0,1,.69.71V354a.69.69,0,0,1-.69.7h-18.5a.7.7,0,0,1-.71-.7V321.19a.71.71,0,0,1,.71-.71Z"/><path class="cls-3" d="M554,320.48a.71.71,0,0,1,.71.71V354a.7.7,0,0,1-.71.7H535.55a.7.7,0,0,1-.71-.7V321.19a.7.7,0,0,1,.71-.71Z"/><path class="cls-3" d="M535.89,420.81a.71.71,0,0,1-.71.71H502.41a.71.71,0,0,1-.71-.71V402.34a.71.71,0,0,1,.71-.72h32.77a.71.71,0,0,1,.71.72Z"/><path class="cls-4" d="M565,374.17C565,435.5,519.28,517,519.28,517s-45.72-81.53-45.72-142.86,20.46-79.24,45.72-79.24S565,312.83,565,374.17Z"/><path class="cls-1" d="M546.92,365.21a4.33,4.33,0,0,1-4.09,3h-4.21v18.19a4.36,4.36,0,0,1-4.33,4.33h-10V374a.88.88,0,0,0-.9-.9H515.6a.88.88,0,0,0-.89.9v16.72h-10.4a4.38,4.38,0,0,1-4.37-4.33V368.16h-4.2a4.35,4.35,0,0,1-2.61-7.81l23.51-17.89a4.41,4.41,0,0,1,2.64-.9,4.24,4.24,0,0,1,2.62.9l23.55,17.89A4.36,4.36,0,0,1,546.92,365.21Z"/></svg>