<svg id="圖層_1" data-name="圖層 1" xmlns="http://www.w3.org/2000/svg" viewBox="0 0 1080 1080"><defs><style>.cls-1{fill:#805c3e;}.cls-2{fill:#827c5e;}.cls-3{fill:#806c4e;}.cls-4{fill:#bbc6c7;}.cls-5{fill:gray;}.cls-6{fill:#5c6a78;}.cls-7{fill:#cd9349;}.cls-8{fill:#7d4c2e;}.cls-9{fill:#14805c;}.cls-10{fill:#919fad;}.cls-11{fill:#fff;}</style></defs><path class="cls-1" d="M747.42,692.86l-13.35,13.42-14,14a12.85,12.85,0,0,1-18.16,0L553.67,572a12.85,12.85,0,0,1,0-18.16l13.8-13.8.19-.19,13.28-13.22a12.79,12.79,0,0,1,18.11,0L747.29,674.89A12.79,12.79,0,0,1,747.42,692.86Z"/><path class="cls-2" d="M747.42,692.86l-13.35,13.42a3.47,3.47,0,0,1-.52.44l-.12.13a12.83,12.83,0,0,1-17.52-.57L567.66,558a12.75,12.75,0,0,1-.51-17.52,1.06,1.06,0,0,1,.32-.45l.19-.19,13.28-13.22a12.79,12.79,0,0,1,18.11,0L747.29,674.89A12.79,12.79,0,0,1,747.42,692.86Z"/><path class="cls-3" d="M733.55,706.72l-.12.13a12.83,12.83,0,0,1-17.52-.57L567.66,558a12.3,12.3,0,1,1,17.39-17.39L733.3,688.88A12.82,12.82,0,0,1,733.55,706.72Z"/><path class="cls-4" d="M482.07,591.35a130.07,130.07,0,0,1-93.39-39.11c-50.69-51.5-50-134.62,1.46-185.3a131.06,131.06,0,0,1,185.3,1.48c50.68,51.49,50,134.6-1.47,185.29A130.24,130.24,0,0,1,482.07,591.35Z"/><path class="cls-5" d="M482.05,348.55a111.79,111.79,0,1,1-78.4,32.13,111.41,111.41,0,0,1,78.4-32.13Zm0-38.5h0a149.38,149.38,0,0,0-105.42,43.18c-59.06,58.12-59.81,153.46-1.69,212.52a150.31,150.31,0,0,0,212.53,1.68c59-58.13,59.81-153.47,1.69-212.52a149.2,149.2,0,0,0-107.11-44.86Z"/><path class="cls-6" d="M482.05,348.55a111.79,111.79,0,1,1-78.4,32.13,111.41,111.41,0,0,1,78.4-32.13Zm0-12.83h0a124.61,124.61,0,1,0,88.81,37.19,123.92,123.92,0,0,0-88.81-37.19Z"/><path class="cls-7" d="M537.13,432.48,483.51,388.9a2.3,2.3,0,0,0-2.89,0L427,432.48a2.28,2.28,0,0,0-.84,1.78v86.59a2.29,2.29,0,0,0,2.29,2.29H535.68a2.3,2.3,0,0,0,2.3-2.29V434.26A2.29,2.29,0,0,0,537.13,432.48Z"/><path class="cls-1" d="M553.72,447.69a7.87,7.87,0,0,1-5-1.78l-66.66-54.18L415.4,445.91a7.93,7.93,0,1,1-10-12.32l71.66-58.25a8,8,0,0,1,10,0l71.66,58.25a7.94,7.94,0,0,1-5,14.1Z"/><path class="cls-8" d="M466.71,468.32a5,5,0,0,0-4.94-5H448.55a5,5,0,0,0-5,5v57.11h23.12Z"/><path class="cls-8" d="M468,526.76H442.26V468.32a6.28,6.28,0,0,1,6.29-6.27h13.22a6.28,6.28,0,0,1,6.26,6.27Zm-23.12-2.65h20.48V468.32a3.64,3.64,0,0,0-3.62-3.63H448.55a3.64,3.64,0,0,0-3.64,3.63Z"/><path class="cls-9" d="M546.84,525.43a4.2,4.2,0,0,1-4.19,4.2H416.15a4.2,4.2,0,0,1-4.2-4.2h0a4.2,4.2,0,0,1,4.2-4.19h126.5a4.2,4.2,0,0,1,4.19,4.19Z"/><rect class="cls-10" x="479.4" y="466.59" width="45.4" height="32.63"/><path class="cls-8" d="M524.79,500.54H479.4a1.32,1.32,0,0,1-1.33-1.32V466.59a1.33,1.33,0,0,1,1.33-1.32h45.39a1.33,1.33,0,0,1,1.33,1.32v32.63A1.32,1.32,0,0,1,524.79,500.54Zm-44.07-2.65h42.76v-30H480.72Z"/><path class="cls-10" d="M470.83,443.25a1.33,1.33,0,0,1-1.32-1.33V410.64a1.32,1.32,0,0,1,1.32-1.33H493.3a1.32,1.32,0,0,1,1.33,1.33v31.28a1.33,1.33,0,0,1-1.33,1.33Z"/><path class="cls-8" d="M493.3,410.64v31.28H470.83V410.64Zm0-2.66H470.83a2.65,2.65,0,0,0-2.65,2.66v31.28a2.64,2.64,0,0,0,2.65,2.65H493.3a2.64,2.64,0,0,0,2.65-2.65V410.64A2.65,2.65,0,0,0,493.3,408Z"/><path class="cls-8" d="M502.09,500.54a1.32,1.32,0,0,1-1.31-1.32V466.59a1.32,1.32,0,1,1,2.64,0v32.63A1.32,1.32,0,0,1,502.09,500.54Z"/><path class="cls-11" d="M568.22,431.81a43.43,43.43,0,1,1-43.43-43.43A43.43,43.43,0,0,1,568.22,431.81Z"/></svg>