<svg id="圖層_1" data-name="圖層 1" xmlns="http://www.w3.org/2000/svg" viewBox="0 0 800 800"><defs><style>.cls-1{fill:#8ab412;}.cls-2{fill:#cddd67;}.cls-3{fill:#6c8e03;}.cls-4{fill:#888;}.cls-5{fill:#9e9e9f;}.cls-6{fill:#717071;}</style></defs><polygon class="cls-1" points="685.85 359.75 685.85 441.73 560.69 500.49 560.69 418.45 685.85 359.75"/><polygon class="cls-2" points="446.75 331.88 589.69 314.36 685.85 359.75 560.69 418.45 492.4 392.41 582.52 354.14 417.21 371.28 360.61 341.42 380.39 267.74 305.69 296.04 264.4 271.13 401.25 219.5 446.75 241.92 425.29 323.9 443.51 332.26 446.75 331.88"/><polygon class="cls-1" points="582.52 354.14 492.4 392.41 492.4 444.75 491.97 445.67 439.42 419.85 418.07 429.06 417.21 427.07 417.21 371.28 582.52 354.14"/><polygon class="cls-3" points="560.69 418.45 560.69 500.49 497.2 477.95 497.2 448.25 491.97 445.67 492.4 444.75 492.4 392.41 560.69 418.45"/><polygon class="cls-4" points="497.2 477.95 497.2 530.24 390.1 580.48 388.8 499.08 497.2 448.25 497.2 477.95"/><polygon class="cls-5" points="273.51 368.75 305.69 388.75 360.61 422.81 360.61 422.87 390.1 441.14 418.07 429.06 439.42 419.85 491.97 445.67 497.2 448.25 388.8 499.08 114.17 327.78 222.25 287.03 264.4 309.51 273.51 314.36 222.25 336.95 273.51 368.75"/><polygon class="cls-1" points="446.75 241.92 446.75 331.88 443.51 332.26 425.29 323.9 446.75 241.92"/><polygon class="cls-3" points="417.21 427.07 418.07 429.06 390.1 441.14 360.61 422.87 360.61 422.81 360.61 368.59 360.61 341.42 417.21 371.28 417.21 427.07"/><polygon class="cls-6" points="388.8 499.08 390.1 580.48 115.47 409.18 114.17 327.78 388.8 499.08"/><polygon class="cls-1" points="380.39 267.74 360.61 341.42 360.61 368.59 305.69 388.75 305.69 296.04 380.39 267.74"/><polygon class="cls-3" points="305.69 296.04 305.69 388.75 273.51 368.75 273.51 314.36 264.4 309.51 264.4 271.13 305.69 296.04"/><polygon class="cls-6" points="273.51 314.36 273.51 368.75 222.25 336.95 273.51 314.36"/></svg>